<mxfile host="app.diagrams.net" agent="Mozilla/5.0 (Windows NT 10.0; Win64; x64; rv:135.0) Gecko/20100101 Firefox/135.0" version="26.0.10">
  <diagram name="Page-1" id="9f46799a-70d6-7492-0946-bef42562c5a5">
    <mxGraphModel dx="1790" dy="915" grid="1" gridSize="10" guides="1" tooltips="1" connect="1" arrows="1" fold="1" page="1" pageScale="1" pageWidth="1700" pageHeight="1100" background="none" math="0" shadow="0">
      <root>
        <mxCell id="0" />
        <mxCell id="1" parent="0" />
        <mxCell id="-SIJsTSxSS6JEqGxFQW--1" value="AR equpied &lt;br&gt;&lt;div&gt;mobile device&lt;/div&gt;" style="label;whiteSpace=wrap;html=1;align=center;verticalAlign=bottom;spacingLeft=0;spacingBottom=4;imageAlign=center;imageVerticalAlign=middle;image=img/clipart/Gear_128x128.png;imageAspect=1;" parent="1" vertex="1">
          <mxGeometry x="230" y="550" width="390" height="210" as="geometry" />
        </mxCell>
        <mxCell id="-SIJsTSxSS6JEqGxFQW--3" value="" style="ellipse;shape=cloud;whiteSpace=wrap;html=1;" parent="1" vertex="1">
          <mxGeometry x="930" y="330" width="250" height="150" as="geometry" />
        </mxCell>
        <mxCell id="-SIJsTSxSS6JEqGxFQW--4" value="" style="shape=cylinder3;whiteSpace=wrap;html=1;boundedLbl=1;backgroundOutline=1;size=15;" parent="1" vertex="1">
          <mxGeometry x="1480" y="180" width="90" height="160" as="geometry" />
        </mxCell>
        <mxCell id="-SIJsTSxSS6JEqGxFQW--5" value="" style="endArrow=classic;startArrow=classic;html=1;rounded=0;exitX=0.88;exitY=0.25;exitDx=0;exitDy=0;exitPerimeter=0;" parent="1" source="-SIJsTSxSS6JEqGxFQW--3" edge="1">
          <mxGeometry width="50" height="50" relative="1" as="geometry">
            <mxPoint x="1110" y="300" as="sourcePoint" />
            <mxPoint x="1440" y="250" as="targetPoint" />
          </mxGeometry>
        </mxCell>
        <mxCell id="-SIJsTSxSS6JEqGxFQW--7" value="" style="endArrow=classic;html=1;rounded=0;exitX=0.072;exitY=0.01;exitDx=0;exitDy=0;exitPerimeter=0;entryX=0.037;entryY=0.501;entryDx=0;entryDy=0;entryPerimeter=0;" parent="1" source="-SIJsTSxSS6JEqGxFQW--1" target="-SIJsTSxSS6JEqGxFQW--3" edge="1">
          <mxGeometry width="50" height="50" relative="1" as="geometry">
            <mxPoint x="440" y="570" as="sourcePoint" />
            <mxPoint x="840" y="310" as="targetPoint" />
          </mxGeometry>
        </mxCell>
        <mxCell id="-SIJsTSxSS6JEqGxFQW--8" value="Geopgraphic precision and view angle" style="text;strokeColor=none;fillColor=none;align=left;verticalAlign=middle;spacingLeft=4;spacingRight=4;overflow=hidden;points=[[0,0.5],[1,0.5]];portConstraint=eastwest;rotatable=0;whiteSpace=wrap;html=1;" parent="1" vertex="1">
          <mxGeometry x="250" y="460" width="240" height="30" as="geometry" />
        </mxCell>
        <mxCell id="-SIJsTSxSS6JEqGxFQW--9" value="" style="endArrow=classic;html=1;rounded=0;entryX=1;entryY=0;entryDx=0;entryDy=0;" parent="1" source="-SIJsTSxSS6JEqGxFQW--3" target="-SIJsTSxSS6JEqGxFQW--1" edge="1">
          <mxGeometry width="50" height="50" relative="1" as="geometry">
            <mxPoint x="650" y="620" as="sourcePoint" />
            <mxPoint x="740" y="670" as="targetPoint" />
          </mxGeometry>
        </mxCell>
        <mxCell id="-SIJsTSxSS6JEqGxFQW--10" value="List of data items in vview frame" style="text;strokeColor=none;fillColor=none;align=left;verticalAlign=middle;spacingLeft=4;spacingRight=4;overflow=hidden;points=[[0,0.5],[1,0.5]];portConstraint=eastwest;rotatable=0;whiteSpace=wrap;html=1;" parent="1" vertex="1">
          <mxGeometry x="650" y="540" width="230" height="30" as="geometry" />
        </mxCell>
        <mxCell id="-SIJsTSxSS6JEqGxFQW--12" value="&lt;div&gt;List of object locations rendered via AR into image&lt;/div&gt;&lt;div&gt;Activation of screen element accesses corresponding data&lt;/div&gt;" style="text;strokeColor=none;fillColor=none;align=left;verticalAlign=middle;spacingLeft=4;spacingRight=4;overflow=hidden;points=[[0,0.5],[1,0.5]];portConstraint=eastwest;rotatable=0;whiteSpace=wrap;html=1;" parent="1" vertex="1">
          <mxGeometry x="270" y="770" width="350" height="50" as="geometry" />
        </mxCell>
        <mxCell id="-SIJsTSxSS6JEqGxFQW--13" value="" style="endArrow=classic;startArrow=classic;html=1;rounded=0;entryX=0.55;entryY=0.95;entryDx=0;entryDy=0;entryPerimeter=0;exitX=0.994;exitY=-0.12;exitDx=0;exitDy=0;exitPerimeter=0;" parent="1" source="-SIJsTSxSS6JEqGxFQW--12" target="-SIJsTSxSS6JEqGxFQW--3" edge="1">
          <mxGeometry width="50" height="50" relative="1" as="geometry">
            <mxPoint x="760" y="700" as="sourcePoint" />
            <mxPoint x="850" y="520" as="targetPoint" />
            <Array as="points">
              <mxPoint x="1010" y="570" />
            </Array>
          </mxGeometry>
        </mxCell>
        <mxCell id="-SIJsTSxSS6JEqGxFQW--14" value="&lt;div&gt;1 - 1 geographic location to data file&lt;/div&gt;&lt;div&gt;&lt;br&gt;&lt;/div&gt;" style="text;strokeColor=none;fillColor=none;align=left;verticalAlign=middle;spacingLeft=4;spacingRight=4;overflow=hidden;points=[[0,0.5],[1,0.5]];portConstraint=eastwest;rotatable=0;whiteSpace=wrap;html=1;" parent="1" vertex="1">
          <mxGeometry x="1190" y="260" width="140" height="40" as="geometry" />
        </mxCell>
        <mxCell id="-SIJsTSxSS6JEqGxFQW--15" value="&lt;div&gt;- Global (app-wide) database&lt;/div&gt;&lt;div&gt;- Regional databse&lt;br&gt;- Local database&lt;br&gt;&lt;br&gt;GIS tevchniques?&lt;/div&gt;" style="text;strokeColor=none;fillColor=none;align=left;verticalAlign=middle;spacingLeft=4;spacingRight=4;overflow=hidden;points=[[0,0.5],[1,0.5]];portConstraint=eastwest;rotatable=0;whiteSpace=wrap;html=1;" parent="1" vertex="1">
          <mxGeometry x="1435" y="360" width="180" height="80" as="geometry" />
        </mxCell>
        <mxCell id="ddH1To980e6ve-YeWc0L-1" value="Device: GPS location&lt;br&gt;Device: Orientation&lt;br&gt;Device: Camera optical properties&lt;br&gt;Combined: gives &quot;activation area&quot; for content" style="text;strokeColor=none;fillColor=none;align=left;verticalAlign=middle;spacingLeft=4;spacingRight=4;overflow=hidden;points=[[0,0.5],[1,0.5]];portConstraint=eastwest;rotatable=0;whiteSpace=wrap;html=1;" vertex="1" parent="1">
          <mxGeometry x="100" y="280" width="300" height="70" as="geometry" />
        </mxCell>
      </root>
    </mxGraphModel>
  </diagram>
</mxfile>
